PathFileType	4	(X/Y/Z)	/Users/niels/Desktop/University/Third Semester/Perception and Action/Exam/Gymnastics Motion Tracking/Code for Gym Tracking/Analyzed Data/Webcam_Backflip/id3_3_trajectory_Sports2D/id3_3_trajectory_Sports2D_px_person00.trc
DataRate	CameraRate	NumFrames	NumMarkers	Units	OrigDataRate	OrigDataStartFrame	OrigNumFrames
29.8125	29.8125	11	22	m	29.8125	100	160
Frame#	Time	Hip			RHip			RKnee			RAnkle			RBigToe			RSmallToe			RHeel			LHip			LKnee			LAnkle			LBigToe			LSmallToe			LHeel			Neck			Head			Nose			RShoulder			RElbow			RWrist			LShoulder			LElbow			LWrist		
		X1	Y1	Z1	X2	Y2	Z2	X3	Y3	Z3	X4	Y4	Z4	X5	Y5	Z5	X6	Y6	Z6	X7	Y7	Z7	X8	Y8	Z8	X9	Y9	Z9	X10	Y10	Z10	X11	Y11	Z11	X12	Y12	Z12	X13	Y13	Z13	X14	Y14	Z14	X15	Y15	Z15	X16	Y16	Z16	X17	Y17	Z17	X18	Y18	Z18	X19	Y19	Z19	X20	Y20	Z20	X21	Y21	Z21	X22	Y22	Z22
100	3.354297693920335	0.9621427654573924	-0.5768073672666574	0.0	0.9604655969626622	-0.5768679766329986	0.0	1.0006562395746321	-0.6767849908375905	0.0	0.9449278748414521	-0.7758804696484496	0.0	0.9842097826416314	-0.8054072805874095	0.0	0.9720884314316379	-0.806085997544882	0.0	0.9314774076800647	-0.7884250848377499	0.0	0.9620269556396658	-0.5773278820656315	0.0	0.9678633944618943	-0.6781349275634306	0.0	0.9524917017663695	-0.7865534821278696	0.0	0.9964179565053941	-0.8046385492555005	0.0	0.9907527905256374	-0.8007725664679582	0.0	0.9439259115007808	-0.8015085199033198	0.0	0.9773538234275949	-0.4139377314094448	0.0	1.014832368859825	-0.3567015999613007	0.0	1.017566288851674	-0.39848793319950415	0.0	0.9603047692842305	-0.4339503277586389	0.0	0.9326692591988512	-0.5097210435861628	0.0	0.9419802827299016	-0.5807693530487589	0.0	0.9736803200324785	-0.43353001702122246	0.0	0.9617031179045024	-0.5101003252038796	0.0	0.9735572789917019	-0.5756379570456486	0.0
101	3.3878406708595383	0.9618343441079227	-0.5772892525526854	0.0	0.961507731092638	-0.5772428685799145	0.0	1.001387060204558	-0.6770742123886033	0.0	0.9540393715880917	-0.7806634581316764	0.0	0.9965413885386122	-0.8052520947830157	0.0	0.9839734565444435	-0.8072111550762031	0.0	0.9420080911674783	-0.794317452316609	0.0	0.9609044348481084	-0.5776557755857669	0.0	0.9686569281621594	-0.6780868448316885	0.0	0.9527656007217884	-0.7873872034446472	0.0	0.9988547809950181	-0.8052232275206307	0.0	0.9929587486015881	-0.8016951033358153	0.0	0.9433816497483356	-0.8022723974221051	0.0	0.9781578959854845	-0.4140470246750975	0.0	1.016228393954315	-0.35727070238660147	0.0	1.0184813424025474	-0.3992291790866928	0.0	0.960712656494252	-0.43421816894949866	0.0	0.9371810566829089	-0.511385543232449	0.0	0.9544857710660343	-0.5810161690853343	0.0	0.9739630304408362	-0.4342677172369178	0.0	0.9651229290988393	-0.5114292893939857	0.0	0.9797275930466128	-0.5760325348486576	0.0
102	3.421383647798742	0.9613057459524794	-0.5771392095390588	0.0	0.9622309295907899	-0.5769747043862323	0.0	1.0013681119190678	-0.6771989312850415	0.0	0.9612073960327717	-0.7850444029781249	0.0	1.0061428008472426	-0.8050833517412176	0.0	0.9935778477825116	-0.8081431102443015	0.0	0.950342923713512	-0.7994173631142404	0.0	0.9597115922357121	-0.577212061423896	0.0	0.9689573977976272	-0.6780000565321945	0.0	0.9532315170274763	-0.7885264997783332	0.0	1.0014190161870886	-0.8054516833719981	0.0	0.9950260790735203	-0.8023042025327947	0.0	0.9435467747707695	-0.8030574545636543	0.0	0.9788218969598866	-0.4138394427433054	0.0	1.0178544334872188	-0.3572744919080267	0.0	1.019300312742891	-0.3997076674515277	0.0	0.9613380876945073	-0.43399688989344537	0.0	0.9417008076187829	-0.5123172357778705	0.0	0.967196650338675	-0.5798352806072453	0.0	0.9739989538896954	-0.4345257684315424	0.0	0.9684276200256487	-0.5121782079952786	0.0	0.9866159778741477	-0.5747064519763666	0.0
103	3.454926624737945	0.9609183447845712	-0.5763868670394201	0.0	0.9628941471099228	-0.5761940539320929	0.0	1.0015718301375618	-0.6769477836051537	0.0	0.9660666193928571	-0.7879377021904912	0.0	1.0125894049673576	-0.804785428122906	0.0	1.000256239715546	-0.8085534300946476	0.0	0.955792247635565	-0.8025597597161858	0.0	0.9589358110595123	-0.5761423486184014	0.0	0.9689168556321298	-0.6777802335955753	0.0	0.9536773006569761	-0.7895019772781062	0.0	1.004000245850202	-0.8053428417305591	0.0	0.9968884534673449	-0.8025416458432081	0.0	0.9440615469193172	-0.8035736857578171	0.0	0.9794070510305269	-0.41353902663369885	0.0	1.0198906947601105	-0.35697550547603035	0.0	1.0200754007406725	-0.40015976098720885	0.0	0.9622017997131768	-0.43333512967958454	0.0	0.9461130213013894	-0.5125816354040367	0.0	0.9794567415347555	-0.5774056154739275	0.0	0.9739925903921801	-0.4342681149460107	0.0	0.9721508431864168	-0.512472947629966	0.0	0.9950779954605417	-0.5715158751101017	0.0
104	3.4884696016771484	0.9609003717260497	-0.5751318337783077	0.0	0.9637291998768958	-0.5749921153646232	0.0	1.0024774632821678	-0.6762600076477694	0.0	0.9689931238797381	-0.7890465680023075	0.0	1.0165658719557533	-0.8043216339007477	0.0	1.0044532180757686	-0.8083734184936414	0.0	0.9586560177489216	-0.8035912736270295	0.0	0.9589418001162113	-0.574634886930364	0.0	0.9688616459863975	-0.6773464777797725	0.0	0.9540143407758976	-0.7899487035595101	0.0	1.0065548778521405	-0.804908120797428	0.0	0.9986353969429559	-0.8023296431970884	0.0	0.9446075385770063	-0.8035922308088262	0.0	0.9800479237159718	-0.41325911145289135	0.0	1.0224286282919846	-0.35666923533114225	0.0	1.020891608837867	-0.4007642097810738	0.0	0.963277321623492	-0.4322871565423935	0.0	0.950331364203988	-0.5122907834388393	0.0	0.9906973144075223	-0.5740830805640517	0.0	0.9740810082025193	-0.433536692281794	0.0	0.9763447029720762	-0.5124104717816291	0.0	1.0050806334010915	-0.5665691326420974	0.0
105	3.522012578616352	0.9613138955020348	-0.5735941096051467	0.0	0.964834256426862	-0.5735033207653735	0.0	1.0038690787995102	-0.6752839922765924	0.0	0.9706739605292142	-0.788804343004594	0.0	1.0190116052765112	-0.8037443221136555	0.0	1.0070094467375952	-0.8077738220096825	0.0	0.9597565999582961	-0.8031440050357175	0.0	0.9597789128862326	-0.5729205994873289	0.0	0.9691706282570686	-0.6766863229663233	0.0	0.9542340168791041	-0.7897289293480437	0.0	1.0088839025812901	-0.8040848874918808	0.0	1.0002089978217465	-0.8015484566512882	0.0	0.9449845038758332	-0.8030739284371129	0.0	0.9809257778278878	-0.4129699162309867	0.0	1.0254948313649275	-0.3565727951604375	0.0	1.0218812588116706	-0.40157916687072137	0.0	0.9645873584369389	-0.4309354781307146	0.0	0.954275412582131	-0.511579470933359	0.0	1.0005070933643736	-0.570333170951102	0.0	0.9743102746837441	-0.43241200898185367	0.0	0.9805349252059197	-0.5119829957764841	0.0	1.015687873762609	-0.5602709603045385	0.0
106	3.555555555555555	0.9621351351183682	-0.5720859450348098	0.0	0.9661683092554251	-0.5719533654307436	0.0	1.0049895753301021	-0.6743108407684153	0.0	0.9716487635152464	-0.7880433950369807	0.0	1.0203927618457649	-0.8032136343278399	0.0	1.0084641259994054	-0.807084879138383	0.0	0.9598894696119471	-0.8021713195858278	0.0	0.9612363455410026	-0.571244387863329	0.0	0.9702124668024876	-0.6758486302711721	0.0	0.9543821136981091	-0.788865525672689	0.0	1.0105965644781896	-0.8027865139576178	0.0	1.001340326113434	-0.8001777731806746	0.0	0.9451031478273317	-0.8020992066075454	0.0	0.9822148722133761	-0.41256271366036984	0.0	1.0290394182785503	-0.35672343745467905	0.0	1.0232104193688496	-0.4024670049441982	0.0	0.9662326238573155	-0.42943729630758337	0.0	0.9578779231771354	-0.5106113318362252	0.0	1.0086497072448721	-0.5666595064365392	0.0	0.9747383188248072	-0.4309957854077565	0.0	0.9841726988313514	-0.5111151792024526	0.0	1.0256173165009321	-0.5532481112040186	0.0
107	3.5890985324947584	0.9632855739000666	-0.5708603393958184	0.0	0.9675938146849408	-0.5705327052818135	0.0	1.0049882833814814	-0.6736347388959143	0.0	0.9721821318208684	-0.7875994749022209	0.0	1.0207496683210004	-0.8030096016882333	0.0	1.0090036792372068	-0.8067230170485687	0.0	0.9595660882305799	-0.8015324577747489	0.0	0.9630852820814327	-0.5697567938971684	0.0	0.9723582344442009	-0.6748848474978993	0.0	0.9545649368235194	-0.7874255079945668	0.0	1.011337797507804	-0.8009935273841577	0.0	1.0017640976195867	-0.7983095808273816	0.0	0.9449706097543719	-0.8006980928841567	0.0	0.9840165319617746	-0.4119621129828026	0.0	1.0329252558528639	-0.3570299814861398	0.0	1.0250315832409729	-0.4031820469909496	0.0	0.9683277946687394	-0.42800225348377097	0.0	0.9611098053776133	-0.5095708850465317	0.0	1.0150348810146632	-0.5635293241951447	0.0	0.9754999545724827	-0.4294234534391538	0.0	0.9869789254134799	-0.509813191742927	0.0	1.0338309745852396	-0.5462619530021002	0.0
108	3.622641509433962	0.9646549854525899	-0.5700082932403616	0.0	0.9689190011792849	-0.5693066948780838	0.0	1.0034159195966232	-0.6734227891216577	0.0	0.972351706874991	-0.7879942719842311	0.0	1.0200944111464776	-0.8034539416860217	0.0	1.0087238372983847	-0.8070864995109718	0.0	0.9590196710366812	-0.8017238243611804	0.0	0.9652825814155165	-0.568484740662857	0.0	0.976016741967807	-0.6737798247173318	0.0	0.9549311246228899	-0.7853867930770828	0.0	1.0110746408349702	-0.798735223826378	0.0	1.0014150319653887	-0.7959980638851911	0.0	0.9446684732262175	-0.7987322261361052	0.0	0.9863225041506145	-0.41119874356874847	0.0	1.0369727798171469	-0.3574168945302032	0.0	1.0274340116089586	-0.4035649904701197	0.0	0.9709190079594171	-0.42681690619233303	0.0	0.9639947093095721	-0.50865400090455	0.0	1.019691260428331	-0.5613323085145703	0.0	0.9767538408261259	-0.4278609582211785	0.0	0.9888979277487298	-0.5082772902939371	0.0	1.0397400160248804	-0.5401407878390219	0.0
109	3.656184486373165	0.9661638686029295	-0.5695013833205901	0.0	0.9699293069456862	-0.5682819072440576	0.0	1.000473562422854	-0.6736707948122613	0.0	0.9722198744693497	-0.7893065286121153	0.0	1.0186547009877467	-0.804743632056335	0.0	1.0078154570365117	-0.808401397346519	0.0	0.9583771044434894	-0.8027993377555284	0.0	0.9679673206140593	-0.5674289907863651	0.0	0.9815513905674937	-0.6724484003347552	0.0	0.955639457042253	-0.7826073296589475	0.0	1.010176346570073	-0.7960109102030234	0.0	1.0004561039934652	-0.7931888863159253	0.0	0.9443607725904878	-0.7959283633581148	0.0	0.9890447769168521	-0.4104091601980253	0.0	1.0410293558948465	-0.35790749511775977	0.0	1.0303778647388373	-0.4036677584763281	0.0	0.9739377128990655	-0.4260087992038239	0.0	0.9665987838998771	-0.5080571695838197	0.0	1.0227458925965467	-0.5603657135607224	0.0	0.9785967738209054	-0.42647958398164515	0.0	0.989982931450096	-0.5068627341271953	0.0	1.0431605242716542	-0.5356625385185817	0.0
110	3.6897274633123684	0.9677855368943733	-0.5692831519998763	0.0	0.9704578595177976	-0.5674957440923222	0.0	0.9968872977756029	-0.6742726378599514	0.0	0.9719437810554833	-0.7912393549345503	0.0	1.0168765175786565	-0.806804252781848	0.0	1.0065863016924201	-0.8105888959341802	0.0	0.9577909647159714	-0.8044719466778796	0.0	0.9712667784491854	-0.5666490885666878	0.0	0.988994849873961	-0.6708154361361243	0.0	0.9568383429746884	-0.7789934914868599	0.0	1.0092537291482064	-0.7928527224519655	0.0	0.99926060757391	-0.7898582997862177	0.0	0.944320183449775	-0.7920928537262601	0.0	0.9920669022554436	-0.4097811626520316	0.0	1.0449957958969187	-0.35859801190857443	0.0	1.033661495440214	-0.4037299243224715	0.0	0.9772157847046372	-0.42565118783020317	0.0	0.9689900078823737	-0.5079437420755903	0.0	1.0243705598234936	-0.5608082178079753	0.0	0.9810085901116867	-0.42544753637851923	0.0	0.9903761572785087	-0.5059229256824058	0.0	1.0441950678071248	-0.5334209285268049	0.0
